<svg xmlns="http://www.w3.org/2000/svg" width="580" height="120">
  <rect width="580" height="120" rx="8" fill="#2E3440"/>
  <text x="16" y="24" font-family="monospace" font-size="11" fill="#4C566A">Dark Mode Backgrounds</text>
  <!-- Slate - background -->
  <rect x="16" y="36" width="80" height="50" rx="6" fill="#2E3440" stroke="#434C5E" stroke-width="1"/>
  <text x="56" y="100" font-family="monospace" font-size="9" fill="#D8DEE9" text-anchor="middle">Slate</text>
  <text x="56" y="112" font-family="monospace" font-size="8" fill="#4C566A" text-anchor="middle">#2E3440</text>
  <!-- Slate Light - backgroundPanel -->
  <rect x="112" y="36" width="80" height="50" rx="6" fill="#3B4252" stroke="#434C5E" stroke-width="1"/>
  <text x="152" y="100" font-family="monospace" font-size="9" fill="#D8DEE9" text-anchor="middle">Slate Light</text>
  <text x="152" y="112" font-family="monospace" font-size="8" fill="#4C566A" text-anchor="middle">#3B4252</text>
  <!-- Slate Mid - backgroundElement -->
  <rect x="208" y="36" width="80" height="50" rx="6" fill="#434C5E" stroke="#4C566A" stroke-width="1"/>
  <text x="248" y="100" font-family="monospace" font-size="9" fill="#D8DEE9" text-anchor="middle">Slate Mid</text>
  <text x="248" y="112" font-family="monospace" font-size="8" fill="#4C566A" text-anchor="middle">#434C5E</text>
  <!-- Accents -->
  <rect x="320" y="36" width="36" height="50" rx="6" fill="#7BAFAE"/>
  <text x="338" y="100" font-family="monospace" font-size="9" fill="#D8DEE9" text-anchor="middle">Glacial</text>
  <rect x="364" y="36" width="36" height="50" rx="6" fill="#8FBCBB"/>
  <text x="382" y="100" font-family="monospace" font-size="9" fill="#D8DEE9" text-anchor="middle">Pounamu</text>
  <rect x="408" y="36" width="36" height="50" rx="6" fill="#81A1C1"/>
  <text x="426" y="100" font-family="monospace" font-size="9" fill="#D8DEE9" text-anchor="middle">Dusky</text>
  <rect x="452" y="36" width="36" height="50" rx="6" fill="#A3BE8C"/>
  <text x="470" y="100" font-family="monospace" font-size="9" fill="#D8DEE9" text-anchor="middle">Bush</text>
  <rect x="496" y="36" width="36" height="50" rx="6" fill="#BF616A"/>
  <text x="514" y="100" font-family="monospace" font-size="9" fill="#D8DEE9" text-anchor="middle">Pohut.</text>
  <rect x="540" y="36" width="28" height="50" rx="6" fill="#D8DEE9"/>
  <text x="554" y="100" font-family="monospace" font-size="9" fill="#D8DEE9" text-anchor="middle">Text</text>
</svg>
